# Blender 3.4.1
# www.blender.org
mtllib Level0_Wall_Door_4m.mtl
o Wall_Door
v -0.050000 0.050000 2.000000
v 0.050000 0.050000 2.000000
v -0.050000 4.050000 2.000000
v 0.050000 4.050000 2.000000
v -0.050000 0.050000 -2.000000
v 0.050000 0.050000 -2.000000
v -0.050000 4.050000 -2.000000
v 0.050000 4.050000 -2.000000
v -0.050000 4.050000 -0.666667
v -0.050000 4.050000 0.666667
v 0.050000 4.050000 0.666667
v 0.050000 4.050000 -0.666667
v -0.050000 0.050000 0.666667
v -0.050000 0.050000 -0.666667
v 0.050000 0.050000 -0.666667
v 0.050000 0.050000 0.666667
v -0.050000 2.050000 2.000000
v 0.050000 2.050000 2.000000
v -0.050000 2.050000 -2.000000
v 0.050000 2.050000 -2.000000
v 0.050000 2.050000 -0.666667
v 0.050000 2.050000 0.666667
v -0.050000 2.050000 0.666667
v -0.050000 2.050000 -0.666667
vn -0.0000 -0.0000 1.0000
vn -0.0000 1.0000 -0.0000
vn -0.0000 -0.0000 -1.0000
vn -0.0000 -1.0000 -0.0000
vn -1.0000 -0.0000 -0.0000
vn 1.0000 -0.0000 -0.0000
vt 0.506152 0.616544
vt 0.618963 0.384148
vt 0.506152 0.384874
vt 0.500489 0.616544
vt 0.618963 0.384148
vt 0.500489 0.384874
vt 0.506152 0.611396
vt 0.520775 0.616639
vt 0.618963 0.617152
vt 0.500489 0.611396
vt 0.515108 0.616639
vt 0.618963 0.617152
vt 0.520775 0.384796
vt 0.385959 0.384148
vt 0.506152 0.390022
vt 0.515108 0.384796
vt 0.385959 0.384148
vt 0.500489 0.390022
vt 0.520775 0.389948
vt 0.385959 0.617152
vt 0.520775 0.611487
vt 0.515108 0.389948
vt 0.385959 0.617152
vt 0.515108 0.611487
vt 0.520775 0.465512
vt 0.463627 0.617152
vt 0.520775 0.541076
vt 0.541295 0.617152
vt 0.515108 0.541076
vt 0.541295 0.617152
vt 0.515108 0.465512
vt 0.463627 0.617152
vt 0.506152 0.541037
vt 0.541295 0.384148
vt 0.506129 0.384914
vt 0.463627 0.384148
vt 0.506152 0.384874
vt 0.506152 0.465530
vt 0.463627 0.384148
vt 0.500489 0.384874
vt 0.500489 0.465530
vt 0.500489 0.541037
vt 0.541295 0.384148
vt 0.500513 0.384914
vt 0.618963 0.500650
vt 0.506152 0.498135
vt 0.618963 0.500650
vt 0.500489 0.498135
vt 0.385959 0.500650
vt 0.520775 0.498142
vt 0.385959 0.500650
vt 0.515108 0.498142
vt 0.500489 0.465530
vt 0.500489 0.498135
vt 0.463627 0.500650
vt 0.500489 0.541037
vt 0.541295 0.500650
vt 0.500513 0.497249
vt 0.506152 0.541037
vt 0.541295 0.500650
vt 0.506129 0.497249
vt 0.506152 0.465530
vt 0.506152 0.498135
vt 0.463627 0.500650
s 0
usemtl Level_0_Wall.004
f 17/46/1 18/48/1 4/10/1 3/7/1
f 9/25/2 12/31/2 8/22/2 7/19/2
f 19/50/3 20/52/3 6/16/3 5/13/3
f 13/33/4 16/42/4 2/4/4 1/1/4
f 24/64/5 19/49/5 5/14/5 14/36/5
f 22/57/6 18/47/6 2/5/6 16/43/6
f 20/51/6 21/55/6 15/39/6 6/17/6
f 21/53/4 22/56/4 23/59/4 24/62/4
f 17/45/5 23/60/5 13/34/5 1/2/5
f 15/40/1 21/54/1 24/63/1 14/37/1
f 5/15/4 6/18/4 15/41/4 14/38/4
f 3/8/2 4/11/2 11/29/2 10/27/2
f 10/27/2 11/29/2 12/31/2 9/25/2
f 10/28/5 9/26/5 24/64/5 23/60/5
f 3/9/5 10/28/5 23/60/5 17/45/5
f 12/32/6 11/30/6 22/57/6 21/55/6
f 8/23/6 12/32/6 21/55/6 20/51/6
f 11/30/6 4/12/6 18/47/6 22/57/6
f 9/26/5 7/20/5 19/49/5 24/64/5
f 7/21/3 8/24/3 20/52/3 19/50/3
f 1/3/1 2/6/1 18/48/1 17/46/1
f 22/58/3 16/44/3 13/35/3 23/61/3
